<?xml version="1.0" encoding="UTF-8"?>
<svg id="Layer_1" xmlns="http://www.w3.org/2000/svg" version="1.1" viewBox="0 0 30 30">
  <!-- Generator: Adobe Illustrator 29.1.0, SVG Export Plug-In . SVG Version: 2.1.0 Build 142)  -->
  <defs>
    <style>
      .st0 {
        fill: #fff;
      }
    </style>
  </defs>
  <path class="st0" d="M28.8,27.8c-.4,0-.8-.3-.8-.7-.6-3.6-4.1-9.9-13-10.3v4.6c0,.3-.2.6-.5.8-.3.1-.6.1-.9,0L.7,12.9c-.2-.2-.4-.4-.4-.7s.1-.5.4-.7L13.6,2.3c.3-.2.6-.2.9,0s.5.4.5.8v4.7c5.5.5,14.7,4.5,14.7,19.2s-.3.8-.8.9c0,0,0,0,0,0h0Z"/>
</svg>