<?xml version="1.0" encoding="UTF-8"?>
<svg id="Layer_1" xmlns="http://www.w3.org/2000/svg" version="1.1" viewBox="0 0 40 40">
  <!-- Generator: Adobe Illustrator 29.1.0, SVG Export Plug-In . SVG Version: 2.1.0 Build 142)  -->
  <defs>
    <style>
      .st0 {
        fill: #fff;
      }
    </style>
  </defs>
  <path class="st0" d="M12.6,21.1l-1.3,3.9c-.4,1.1,0,2.2.7,3,.8.8,2,1.1,3,.7l3.9-1.3c.2,0,.3-.2.5-.3l17.7-17.7c1.1-1.1,1.1-3,0-4.1l-2.4-2.4c-1.1-1.1-3-1.1-4.1,0L12.9,20.6c-.1.1-.2.3-.3.5h0ZM32.4,4.7c.2-.2.4-.2.6,0l2.4,2.4c.2.2.2.4,0,.6l-2.7,2.7-3-3,2.7-2.7ZM13.7,25.8l1.2-3.6,13.1-13.1,3,3-13.1,13.1-3.6,1.2c-.2,0-.5,0-.5-.3,0,0,0-.2,0-.3h0ZM37.9,17.5v14.2c0,3.5-2.8,6.3-6.3,6.3H8.3c-3.5,0-6.3-2.8-6.3-6.3h0V8.3c0-3.5,2.8-6.3,6.3-6.3h14.2c.7,0,1.3.6,1.3,1.3s-.6,1.3-1.3,1.3h-14.2c-2.1,0-3.8,1.7-3.8,3.8v23.4c0,2.1,1.7,3.8,3.8,3.8h23.4c2.1,0,3.8-1.7,3.8-3.8v-14.2c0-.7.6-1.3,1.3-1.3s1.3.6,1.3,1.3h0Z"/>
</svg>