<?xml version="1.0" encoding="UTF-8"?>
<svg id="Layer_1" xmlns="http://www.w3.org/2000/svg" version="1.1" viewBox="0 0 16 16">
  <!-- Generator: Adobe Illustrator 29.1.0, SVG Export Plug-In . SVG Version: 2.1.0 Build 142)  -->
  <defs>
    <style>
      .st0 {
        fill: #fff;
      }
    </style>
  </defs>
  <path class="st0" d="M.6.9v6.8c0,.3.3.6.6.6h1.2V.3h-1.2c-.3,0-.6.3-.6.6ZM15,7.6c0-.2.1-.5.1-.7,0-.5-.2-1-.5-1.4,0-.2.1-.5.1-.7,0-.5-.2-1-.5-1.4,0-.2.1-.5.1-.7,0-1-.6-1.8-1.5-2.2-.2,0-.3-.1-.5-.1H3.6v8s1.6,5.8,1.6,5.8c.3.9,1.1,1.6,2.1,1.6s1.1-.2,1.4-.6c.4-.4.6-.9.5-1.5v-2.3c-.1,0,4.4,0,4.4,0,.2,0,.4,0,.6-.2.8-.4,1.2-1.2,1.2-2.1s-.2-1-.5-1.4h0ZM13.6,9.9h-5.8l.2,3.7c0,.2,0,.4-.3.6-.1,0-.3.1-.4.1-.2,0-.4,0-.5-.2-.1-.1-.2-.3-.3-.4-.7-2.5-1.2-4.4-1.6-5.6V1.7h7.4c.2,0,.3.2.5.4.1.2.2.4.2.6,0,.2,0,.4-.1.5l-.3.5.4.4c.1,0,.2.2.3.4s0,.3,0,.4c0,.2,0,.4-.1.5l-.3.5.4.4c.1,0,.2.2.3.4,0,.1,0,.3,0,.4,0,.2,0,.4-.1.5l-.3.5.4.4c.1,0,.2.2.3.4,0,.1,0,.3,0,.4,0,.4-.2.7-.5.9h0Z"/>
</svg>