<?xml version="1.0" encoding="UTF-8"?>
<svg id="Layer_1" xmlns="http://www.w3.org/2000/svg" version="1.1" viewBox="0 0 20 20">
  <!-- Generator: Adobe Illustrator 29.1.0, SVG Export Plug-In . SVG Version: 2.1.0 Build 142)  -->
  <defs>
    <style>
      .st0 {
        fill: #fff;
      }
    </style>
  </defs>
  <path class="st0" d="M17.3,10.4c.3-.4.5-1,.5-1.5,0-.9-.5-1.7-1.3-2.2-.2-.1-.4-.2-.7-.2h-4.7v-2.4c.1-.6,0-1.1-.5-1.6-.2-.2-.4-.4-.7-.5-.3-.1-.5-.2-.8-.2-1,0-1.9.7-2.2,1.7l-1.7,6.1h-2.5c-.3,0-.6.3-.6.6v7.1c0,.3.3.6.6.6h11.7c.2,0,.4,0,.5-.1.9-.4,1.5-1.3,1.5-2.3s0-.5-.1-.7c.3-.4.5-1,.5-1.5s0-.5-.1-.7c.3-.4.5-1,.5-1.5,0-.2,0-.5-.1-.7h0ZM3.6,16.6v-5.5h1.6v5.5h-1.6ZM16,9.7l-.4.4.3.5c0,.2.1.3.1.5,0,.3-.1.6-.4.8l-.4.4.3.5c0,.2.1.3.1.5,0,.3-.1.6-.4.8l-.4.4.3.5c0,.2.1.3.1.5,0,.4-.3.8-.7,1H6.4v-5.6l1.9-7c0-.2.2-.3.3-.5.1-.1.3-.2.5-.2.1,0,.3,0,.4.1.2.1.3.4.3.6l-.2,3.9h6.1c.3.2.6.6.6.9s-.1.6-.4.8Z"/>
</svg>