<?xml version="1.0" encoding="UTF-8"?>
<svg id="Layer_1" xmlns="http://www.w3.org/2000/svg" version="1.1" viewBox="0 0 30 30">
  <!-- Generator: Adobe Illustrator 29.1.0, SVG Export Plug-In . SVG Version: 2.1.0 Build 142)  -->
  <path d="M20.7,27.3c0,.7-.6,1.3-1.3,1.3H7.4c-2.3,0-4.2-1.9-4.2-4.2V5.7c0-2.3,1.9-4.2,4.2-4.2h12c.7,0,1.3.6,1.3,1.3s-.6,1.3-1.3,1.3H7.4c-.9,0-1.7.8-1.7,1.7v18.7c0,.9.8,1.7,1.7,1.7h12c.7,0,1.3.6,1.3,1.3h0ZM26.4,14.1l-6-6c-.5-.5-1.3-.5-1.8,0-.5.5-.5,1.3,0,1.8,0,0,0,0,0,0l3.9,3.9h-10c-.7,0-1.3.6-1.3,1.3s.6,1.3,1.3,1.3h10l-3.9,3.9c-.5.5-.5,1.3,0,1.8.5.5,1.3.5,1.8,0,0,0,0,0,0,0l6-6c.5-.5.5-1.3,0-1.8Z"/>
</svg>